<svg height="300" width="300" xmlns="http://www.w3.org/2000/svg" data-name="Layer 1" viewBox="0 0 100 100"><path d="M56.48 34v-5.55a4 4 0 0 0-4-4h-5a4 4 0 0 0-4 4V34a6.8 6.8 0 0 0-4.37 6.34v29.8a5.4 5.4 0 0 0 5.4 5.4h10.9a5.4 5.4 0 0 0 5.4-5.4V40.38A6.8 6.8 0 0 0 56.48 34zm-9-7.58h5a2 2 0 0 1 2 1.85h-8.95a2 2 0 0 1 1.98-1.81zm.8 2.85h3.5v1.42h-3.5zm-2.79 4.27v-4.23h1.79v2.42h5.5v-2.42h1.67v4.27h-9zm13.36 36.6a3.41 3.41 0 0 1-3.4 3.4h-10.9a3.41 3.41 0 0 1-3.4-3.4V40.38a4.78 4.78 0 0 1 4.31-4.75v.95h1v-1H54a4.81 4.81 0 0 1 4.81 4.8z"/><path d="M45.46 62.58h1v2h-1zm0 4h1v2h-1zm0 4h1v2h-1zm0-12h1v2h-1zm0-20h1v2h-1zm0 16h1v2h-1zm0-12h1v2h-1zm0 8h1v2h-1zm0-4h1v2h-1z"/></svg>