<?xml version="1.0" encoding="UTF-8"?>
<svg width="300" height="300" version="1.1" viewBox="0 0 512 512" xmlns="http://www.w3.org/2000/svg" xmlns:cc="http://creativecommons.org/ns#" xmlns:dc="http://purl.org/dc/elements/1.1/" xmlns:rdf="http://www.w3.org/1999/02/22-rdf-syntax-ns#">
 <metadata>
  <rdf:RDF>
   <cc:Work rdf:about="">
    <dc:format>image/svg+xml</dc:format>
    <dc:type rdf:resource="http://purl.org/dc/dcmitype/StillImage"/>
    <dc:title/>
   </cc:Work>
  </rdf:RDF>
 </metadata>
 <path d="m495.613 358.544-80-248a8 8 0 0 0-4.035-4.7L350.449 75.28a8 8 0 0 0-.792-.937l-24-24A7.994 7.994 0 0 0 320 48.007V48H192v.01a7.963 7.963 0 0 0-5.657 2.333l-23.082 23.082-62.839 31.42a8 8 0 0 0-4.036 4.7l-80 248a8 8 0 0 0 5.514 10.173l88 24a7.99 7.99 0 0 0 9.6-4.909l31.453-83.874 1.047 9.509v30.987l-2.725 19.093-18.4 15.33a8 8 0 0 0-2.033 9.724l13.1 26.205-5.867 41.086A8 8 0 0 0 144 464h224a8 8 0 0 0 7.92-9.131l-5.867-41.087 13.1-26.2a8 8 0 0 0-2.034-9.724l-18.395-15.33L360 343.431V312.4l.942-9.419L392.5 387.79a7.989 7.989 0 0 0 9.6 4.928l88-24a8 8 0 0 0 5.509-10.174zM332.949 80.263 178.081 250.619a8 8 0 0 0-2 6.512l6.7 46.869H167.16l-6.809-61.282L320.263 67.577zM181.1 336H168v-16h32.3zm70.27-216.7L208.357 64h93.505zm-60.121-51.235 49.175 63.225-12.094 13.246-49.68-63.873zm-84.179 306.3-72.885-19.88 76.4-236.832 55.128-27.565 51.673 66.436-59.059 64.684-6.358-69.932a8 8 0 0 0-15.934 1.448l8 88c0 .029.009.057.012.086s0 .049 0 .073l2.989 26.9zM224 321.081v27.074l-69.27 55.416-8.741-17.482zM153.224 448l3.666-25.674c.035-.027.072-.051.108-.079l17.775-14.22L169.062 448zm32 0 7.8-54.572L234.806 360h42.387L355 422.247c.035.028.073.052.109.08L358.776 448zM240 344v-32h32v32zm104-24v16h-13.1l-19.2-16zm13.271 83.571L288 348.155V321.08l78.011 65.009zm47.677-28.213-40.39-108.542 11.4-114.02a8 8 0 0 0-15.92-1.592L344.76 304H292.5l-7.375-6.146A7.969 7.969 0 0 0 280 296h-48a7.967 7.967 0 0 0-5.12 1.855L219.5 304h-20.562l-6.486-45.4L345.218 90.553l56.2 28.1 76.4 236.832z"/>
</svg>
