<svg height="300" width="300" xmlns="http://www.w3.org/2000/svg" viewBox="0 0 100 100" xml:space="preserve"><path d="M87.337 7.725H58.462a6.007 6.007 0 0 0-6.001 6v70.246c0 3.309 2.692 6 6.001 6h28.875c3.309 0 6-2.691 6-6V13.725c0-3.308-2.691-6-6-6zm4 76.246c0 2.206-1.794 4-4 4H58.462a4.005 4.005 0 0 1-4.001-4V13.725c0-2.206 1.795-4 4.001-4h28.875c2.206 0 4 1.794 4 4v70.246z"/><path d="M74.592 22.555a3.615 3.615 0 0 0-1.556-.342h-.273c-.551 0-1.074.115-1.556.342a3.674 3.674 0 0 0-2.074 2.918l-13.73 29.034c-.422.89-.472 1.891-.14 2.818s1.005 1.671 1.896 2.092a3.67 3.67 0 0 0 1.574.354 3.706 3.706 0 0 0 3.336-2.109L72.9 34.758l10.83 22.903a3.706 3.706 0 0 0 3.337 2.109 3.66 3.66 0 0 0 1.574-.354 3.66 3.66 0 0 0 1.894-2.091 3.663 3.663 0 0 0-.139-2.819L76.665 25.47a3.677 3.677 0 0 0-2.073-2.915zm14.06 34.097a1.669 1.669 0 0 1-.865.956c-.827.388-1.865.007-2.248-.803L73.804 31.99a1.002 1.002 0 0 0-1.808 0L60.261 56.806c-.384.811-1.423 1.191-2.248.803a1.674 1.674 0 0 1-.867-.957 1.677 1.677 0 0 1 .064-1.289l13.808-29.196a.991.991 0 0 0 .094-.37c.036-.624.4-1.173.949-1.433.212-.1.466-.136.793-.148.03 0 .152 0 .183-.002.254 0 .489.05.7.15.55.26.914.809.95 1.431a.991.991 0 0 0 .094.37L88.59 55.364c.191.406.214.864.062 1.288zM62.269 17.833H83.53a1 1 0 1 0 0-2H62.269a1 1 0 1 0 0 2zm21.26 61.334h-21.26a1 1 0 1 0 0 2H83.53a1 1 0 1 0-.001-2zM42.236 7.725H13.361c-3.309 0-6 2.691-6 6v70.246c0 3.309 2.691 6 6 6h28.875a6.007 6.007 0 0 0 6.001-6V13.725c0-3.308-2.692-6-6.001-6zm4.001 76.246c0 2.206-1.795 4-4.001 4H13.361c-2.206 0-4-1.794-4-4V13.725c0-2.206 1.794-4 4-4h28.875a4.005 4.005 0 0 1 4.001 4v70.246z"/><path d="M29.491 22.555a3.613 3.613 0 0 0-1.555-.342h-.274c-.551 0-1.075.115-1.556.342a3.675 3.675 0 0 0-2.073 2.915L10.302 54.507a3.664 3.664 0 0 0-.14 2.819 3.662 3.662 0 0 0 1.895 2.091 3.674 3.674 0 0 0 1.574.354c1.42 0 2.73-.828 3.336-2.109l10.832-22.904L38.63 57.661a3.704 3.704 0 0 0 3.336 2.109c.547 0 1.076-.119 1.573-.354a3.662 3.662 0 0 0 1.896-2.092 3.656 3.656 0 0 0-.14-2.818l-13.73-29.033a3.674 3.674 0 0 0-2.074-2.918zm14.062 34.096c-.152.425-.46.765-.868.957-.824.388-1.863.008-2.247-.803L28.703 31.99a1 1 0 0 0-1.808 0L15.16 56.806c-.383.812-1.425 1.19-2.248.803-.407-.192-.714-.531-.866-.956s-.129-.883.064-1.29l13.808-29.199c.055-.116.087-.242.095-.37a1.68 1.68 0 0 1 .949-1.43c.211-.1.425-.132.792-.148l.183-.002c.253 0 .49.05.701.15.55.26.914.809.949 1.433.007.128.04.254.095.37L43.49 55.363c.192.407.215.865.063 1.288zM17.169 17.833H38.43a1 1 0 0 0 0-2H17.169a1 1 0 0 0 0 2zM38.43 79.167H17.169a1 1 0 1 0 0 2H38.43a1 1 0 1 0 0-2z"/></svg>